<svg xmlns="http://www.w3.org/2000/svg" width="512" height="512" viewBox="0 0 128 128">
  <defs>
    <linearGradient id="g" x1="0" x2="1" y1="0" y2="1">
      <stop offset="0" stop-color="#8b1d1d"/>
      <stop offset="1" stop-color="#b02a2a"/>
    </linearGradient>
  </defs>
  <rect width="128" height="128" rx="24" fill="#fffaf9"/>
  <g transform="translate(14 14)">
    <path fill="url(#g)" d="M50.1 84.8c-1.5-1.4-3.1-2.7-4.7-4C34.6 73.6 24 65 18.2 55.1c-4.6-7.8-5.6-16.4-1.8-23.4 3.5-6.4 10-10.2 17.5-10.2 6.3 0 11.9 2.6 15.9 7.4 4-4.8 9.6-7.4 15.9-7.4 7.6 0 14 3.8 17.5 10.2 3.8 7 2.8 15.6-1.8 23.4-5.8 9.9-16.4 18.5-27.2 25.7-1.7 1.2-3.3 2.4-4.8 3.8z"/>
  </g>
</svg>
